Coordinates
version=1
nRows=31
nColumns=38
inDegrees=no

Units are S.I. units (second, meters, Newtons, ...)
If the header above contains a line with 'inDegrees', this indicates whether rotational values are in degrees (yes) or radians (no).

endheader
time	pelvis_tilt	pelvis_list	pelvis_rotation	pelvis_tx	pelvis_ty	pelvis_tz	hip_flexion_r	hip_adduction_r	hip_rotation_r	knee_angle_r	ankle_angle_r	subtalar_angle_r	mtp_angle_r	hip_flexion_l	hip_adduction_l	hip_rotation_l	knee_angle_l	ankle_angle_l	subtalar_angle_l	mtp_angle_l	lumbar_extension	lumbar_bending	lumbar_rotation	arm_flex_r	arm_add_r	arm_rot_r	elbow_flex_r	pro_sup_r	wrist_flex_r	wrist_dev_r	arm_flex_l	arm_add_l	arm_rot_l	elbow_flex_l	pro_sup_l	wrist_flex_l	wrist_dev_l
1.63	-0.255538	1.22893	-1.4267	0.82983	-0.0847386	0.987934	-0.332326	0.0238242	-0.165448	0.443735	0.224003	0	0	0.0179804	-0.126958	-0.450901	0.148634	0.0945395	0	0	-0.543912	0.073613	0.0464481	0.392094	-0.424689	0.0265937	1.10944	0.988808	0	0	0.396453	-0.278327	0.0017747	1.0961	1.08788	0	0
1.64	-0.312118	1.24148	-1.37058	0.831364	-0.0981876	0.98521	-0.333524	0.0355041	-0.17244	0.43857	0.229515	0	0	0.0242077	-0.129307	-0.431722	0.0675617	0.0917193	0	0	-0.525158	0.091988	0.0502433	0.386929	-0.430622	0.0303241	1.11609	0.986463	0	0	0.38798	-0.276369	-0.00137095	1.10009	1.08456	0	0
1.65	-0.378533	1.25324	-1.30678	0.832603	-0.111766	0.982161	-0.333961	0.0489135	-0.174992	0.433358	0.234551	0	0	0.0311461	-0.135984	-0.413016	0	0.0901564	0	0	-0.505467	0.110897	0.0566094	0.381596	-0.436957	0.0344734	1.12194	0.982706	0	0	0.379852	-0.27408	-0.00319155	1.10412	1.07965	0	0
1.66	-0.435052	1.25911	-1.25276	0.83319	-0.123978	0.979136	-0.338511	0.0650605	-0.169316	0.429467	0.235051	0	0	0.0634832	-0.151763	-0.401853	0	0.10117	0	0	-0.493611	0.124858	0.0640189	0.378034	-0.442447	0.0385773	1.12628	0.988736	0	0	0.375651	-0.271412	-0.00724669	1.10682	1.09467	0	0
1.67	-0.486124	1.26227	-1.20472	0.833911	-0.136898	0.976461	-0.347098	0.0752432	-0.166456	0.424338	0.238834	0	0	0.08639	-0.167718	-0.397226	0	0.117903	0	0	-0.483707	0.136835	0.0711788	0.375052	-0.44696	0.0432059	1.12829	0.986238	0	0	0.371514	-0.269763	-0.00869507	1.11003	1.09299	0	0
1.68	-0.540945	1.26569	-1.14838	0.834617	-0.148258	0.973478	-0.352563	0.0895084	-0.157216	0.418977	0.238347	0	0	0.112681	-0.183071	-0.393451	0	0.1423	0	0	-0.477448	0.148372	0.0742405	0.377358	-0.44959	0.0492907	1.12925	0.982133	0	0	0.377047	-0.272071	-0.00845594	1.11623	1.09298	0	0
1.69	-0.582925	1.26497	-1.11069	0.835361	-0.161252	0.970897	-0.364817	0.0970508	-0.152046	0.414481	0.240664	0	0	0.12596	-0.195294	-0.391838	0	0.166823	0	0	-0.471832	0.157183	0.0800716	0.377355	-0.450631	0.0531479	1.12804	0.979209	0	0	0.37425	-0.272469	-0.0107217	1.1205	1.09314	0	0
1.7	-0.616443	1.26193	-1.08398	0.836103	-0.174858	0.968575	-0.380374	0.10152	-0.145573	0.410852	0.241689	0	0	0.130624	-0.205492	-0.392888	0	0.187315	0	0	-0.46841	0.163981	0.0868499	0.376448	-0.450447	0.0555901	1.12678	0.979576	0	0	0.370365	-0.273038	-0.0135708	1.12394	1.09269	0	0
1.71	-0.636611	1.25601	-1.07335	0.836781	-0.18909	0.966662	-0.400408	0.101817	-0.13706	0.408349	0.241788	0	0	0.125834	-0.213171	-0.393831	0	0.192164	0	0	-0.468827	0.167506	0.0955626	0.374678	-0.450007	0.0572659	1.12573	0.978785	0	0	0.366959	-0.273831	-0.0150656	1.12593	1.09287	0	0
1.72	-0.630994	1.24648	-1.09497	0.837067	-0.204792	0.965455	-0.42827	0.0908803	-0.131838	0.408436	0.246015	0	0	0.10564	-0.21525	-0.393606	0	0.174385	0	0	-0.472714	0.164081	0.109529	0.368116	-0.44983	0.0564277	1.12491	0.975316	0	0	0.358184	-0.272429	-0.0147676	1.12412	1.08826	0	0
1.73	-0.620359	1.23882	-1.11763	0.837312	-0.219173	0.964079	-0.451245	0.0802483	-0.119303	0.412639	0.246692	0	0	0.0883445	-0.213918	-0.397505	0	0.150664	0	0	-0.47978	0.156745	0.12192	0.363745	-0.449938	0.0555917	1.12601	0.96657	0	0	0.360048	-0.27437	-0.0080491	1.12368	1.0731	0	0
1.74	-0.611489	1.24199	-1.14528	0.836922	-0.234057	0.961867	-0.455729	0.06102	-0.105981	0.433601	0.256719	0	0	0.0775324	-0.207975	-0.410063	0	0.132866	0	0	-0.474956	0.142022	0.141461	0.351249	-0.443596	0.0333052	1.13009	0.938874	0	0	0.360943	-0.27386	0.000780127	1.12151	1.02919	0	0
1.75	-0.585622	1.22902	-1.18411	0.837326	-0.249153	0.960905	-0.483078	0.0472441	-0.0858899	0.440663	0.246974	0	0	0.0457511	-0.202191	-0.406905	0	0.126445	0	0	-0.487501	0.130941	0.151881	0.353951	-0.44627	0.0499508	1.12081	0.981796	0	0	0.361569	-0.274727	-0.00380569	1.11697	1.09278	0	0
1.76	-0.574742	1.22646	-1.21238	0.837281	-0.264461	0.95915	-0.49059	0.0232633	-0.0770035	0.465013	0.251467	0	0	0.0217145	-0.19663	-0.413852	0	0.133295	0	0	-0.485903	0.119606	0.165275	0.350873	-0.443495	0.0517091	1.11499	0.96619	0	0	0.357678	-0.27623	0.000226763	1.11592	1.07019	0	0
1.77	-0.562464	1.22474	-1.24172	0.837382	-0.279269	0.956938	-0.491097	0.00435285	-0.0611639	0.499393	0.248561	0	0	0.0121369	-0.191665	-0.418221	0.0221833	0.133408	0	0	-0.484303	0.10751	0.176886	0.350594	-0.438325	0.0514674	1.10674	0.970081	0	0	0.353377	-0.277103	-0.00257795	1.11417	1.07722	0	0
1.78	-0.556577	1.22496	-1.26283	0.83817	-0.293843	0.954513	-0.483385	-0.0127509	-0.0452084	0.542179	0.24022	0	0	0.00829187	-0.187703	-0.425399	0.0435201	0.104878	0	0	-0.480926	0.0985283	0.185511	0.351873	-0.432425	0.0512435	1.09738	0.976566	0	0	0.348626	-0.27705	-0.00879595	1.11245	1.09016	0	0
1.79	-0.549548	1.22821	-1.27626	0.840063	-0.307442	0.952356	-0.466629	-0.0264623	-0.0338223	0.592988	0.222739	0	0	0.0248923	-0.188916	-0.427358	0.0828974	0.0500688	0	0	-0.478141	0.0913085	0.18629	0.354481	-0.425984	0.0497802	1.0893	0.981008	0	0	0.347385	-0.277084	-0.0137736	1.11104	1.10151	0	0
1.8	-0.529543	1.2326	-1.29926	0.842345	-0.320519	0.951142	-0.444711	-0.0421454	-0.023769	0.649784	0.193985	0	0	0.039257	-0.187185	-0.439662	0.130382	0.0160591	0	0	-0.478164	0.0799435	0.184823	0.355863	-0.420306	0.0462824	1.08466	0.979963	0	0	0.350506	-0.277102	-0.0137039	1.10824	1.1058	0	0
1.81	-0.485995	1.23426	-1.34622	0.844223	-0.333082	0.951466	-0.423327	-0.0631388	-0.0127757	0.709345	0.154111	0	0	0.040805	-0.177861	-0.4595	0.178031	0.0183896	0	0	-0.485017	0.0600101	0.184203	0.357183	-0.415464	0.0431619	1.08248	0.977521	0	0	0.358304	-0.278777	-0.00835747	1.10293	1.10577	0	0
1.82	-0.442821	1.237	-1.39584	0.845118	-0.345263	0.952195	-0.395826	-0.0819012	0.00504115	0.772115	0.105515	0	0	0.0511669	-0.175218	-0.488403	0.241165	0.0360136	0	0	-0.490362	0.0378294	0.188415	0.358574	-0.412106	0.0404913	1.08087	0.974497	0	0	0.368055	-0.282621	0.00350441	1.09528	1.08486	0	0
1.83	-0.397664	1.23615	-1.44636	0.845741	-0.357785	0.953224	-0.372363	-0.0986664	0.0216511	0.831493	0.0553557	0	0	0.049291	-0.168468	-0.507942	0.283423	0.0398279	0	0	-0.49744	0.0161249	0.191919	0.360965	-0.41088	0.0421107	1.07829	0.980577	0	0	0.375657	-0.285803	0.00950949	1.08779	1.087	0	0
1.84	-0.360269	1.23611	-1.49065	0.846087	-0.370582	0.953953	-0.347305	-0.111587	0.0411524	0.888589	0.00616318	0	0	0.0440677	-0.162716	-0.531258	0.31552	0.0358861	0	0	-0.501112	-0.00350897	0.197347	0.362748	-0.411154	0.0458997	1.07414	0.98702	0	0	0.380567	-0.288673	0.0138098	1.08149	1.08691	0	0
1.85	-0.325209	1.23682	-1.52862	0.846982	-0.383447	0.954389	-0.322929	-0.122034	0.0557124	0.941252	-0.0384843	0	0	0.0371964	-0.154217	-0.548559	0.337056	0.0306074	0	0	-0.502979	-0.0201534	0.19859	0.36395	-0.411451	0.0505923	1.06945	0.989516	0	0	0.383394	-0.291369	0.0158957	1.07973	1.08704	0	0
1.86	-0.292109	1.23899	-1.56068	0.848461	-0.396285	0.95461	-0.298912	-0.130547	0.0653663	0.98883	-0.0779191	0	0	0.0305976	-0.143076	-0.559092	0.351065	0.031224	0	0	-0.502921	-0.0339287	0.195896	0.363536	-0.410906	0.0547341	1.06543	0.988153	0	0	0.384606	-0.293558	0.0174315	1.08184	1.08964	0	0
1.87	-0.265304	1.24318	-1.58428	0.850356	-0.409162	0.954661	-0.274777	-0.13584	0.0721751	1.03046	-0.110609	0	0	0.0253013	-0.131082	-0.564271	0.359858	0.0370197	0	0	-0.500204	-0.0437256	0.191547	0.36209	-0.408854	0.0547703	1.06245	0.984317	0	0	0.384324	-0.294145	0.0173217	1.08612	1.09312	0	0
1.88	-0.249335	1.24954	-1.59605	0.852511	-0.422196	0.954654	-0.251143	-0.136044	0.0783297	1.06534	-0.130947	0	0	0.0214678	-0.119796	-0.563787	0.363842	0.0430917	0	0	-0.494529	-0.0482619	0.186868	0.359447	-0.405751	0.0518775	1.06044	0.977702	0	0	0.381345	-0.292863	0.0148486	1.09098	1.09741	0	0
1.89	-0.247532	1.25585	-1.59246	0.854891	-0.435267	0.95484	-0.230402	-0.129487	0.0846941	1.0941	-0.131953	0	0	0.017429	-0.11093	-0.556075	0.364899	0.0486872	0	0	-0.488757	-0.0464163	0.182187	0.356454	-0.404448	0.049886	1.06154	0.95889	0	0	0.376524	-0.290992	0.0130456	1.09586	1.08388	0	0
1.9	-0.256679	1.26494	-1.57563	0.85734	-0.448398	0.955065	-0.208145	-0.11732	0.0895349	1.11974	-0.11197	0	0	0.0178906	-0.105498	-0.542884	0.368131	0.0573579	0	0	-0.479357	-0.0395249	0.177231	0.351382	-0.401917	0.040362	1.06336	0.937299	0	0	0.370617	-0.289757	0.0157535	1.09984	1.04233	0	0
1.91	-0.288096	1.26412	-1.53862	0.861071	-0.461126	0.956685	-0.195125	-0.107376	0.100243	1.13427	-0.0785668	0	0	0.00754772	-0.10299	-0.526569	0.368504	0.0615609	0	0	-0.481605	-0.0232896	0.174332	0.352146	-0.409425	0.0482178	1.06257	0.96592	0	0	0.36565	-0.281332	0.00274937	1.09715	1.09959	0	0
1.92	-0.309709	1.26345	-1.50709	0.863596	-0.473613	0.958972	-0.185913	-0.0892657	0.102983	1.14385	-0.0470513	0	0	-0.00463704	-0.101493	-0.510287	0.365778	0.0672239	0	0	-0.484103	-0.0109917	0.169237	0.351957	-0.414562	0.052072	1.06306	0.966132	0	0	0.363155	-0.277769	0.00253967	1.095	1.09795	0	0
1.93	-0.326216	1.26061	-1.47892	0.866086	-0.485705	0.961975	-0.17956	-0.0728925	0.101161	1.14675	-0.0162896	0	0	-0.0209218	-0.0984002	-0.490823	0.358151	0.0704318	0	0	-0.490021	-2.29975e-05	0.162675	0.353464	-0.419179	0.0559402	1.0622	0.966032	0	0	0.362549	-0.274622	0.00383407	1.09125	1.09795	0	0
